<?xml version="1.0" encoding="UTF-8" standalone="no"?>
<svg width="130pt" height="64pt" viewBox="0.00 0.00 130.00 64.00" xmlns="http://www.w3.org/2000/svg" xmlns:xlink="http://www.w3.org/1999/xlink">
<g class="graph" transform="scale(1 1) rotate(0) translate(4 60)">

<circle style="fill:blue;stroke:black;" cx="117" cy="-51" r="5.4"/>
<circle style="fill:blue;stroke:black;" cx="33" cy="-5" r="5.4"/>
<path style="fill:none;stroke:black;" d="M112,-48C97,-40 53,-16 38,-8"/>
<circle style="fill:blue;stroke:black;" cx="61" cy="-5" r="5.4"/>
<path style="fill:none;stroke:black;" d="M113,-47C102,-39 75,-17 65,-9"/>
<circle style="fill:blue;stroke:black;" cx="89" cy="-5" r="5.4"/>
<path style="fill:none;stroke:black;" d="M114,-46C109,-37 97,-18 92,-10"/>
<circle style="fill:blue;stroke:black;" cx="5" cy="-51" r="5.4"/>
<path style="fill:none;stroke:black;" d="M8,-46C13,-37 25,-18 30,-10"/>
<path style="fill:none;stroke:black;" d="M9,-47C20,-39 47,-17 57,-9"/>
<path style="fill:none;stroke:black;" d="M10,-48C25,-40 69,-16 84,-8"/>
<circle style="fill:blue;stroke:black;" cx="33" cy="-51" r="5.4"/>
<path style="fill:none;stroke:black;" d="M33,-45C33,-36 33,-19 33,-11"/>
<path style="fill:none;stroke:black;" d="M36,-46C41,-37 53,-18 58,-10"/>
<path style="fill:none;stroke:black;" d="M37,-47C48,-39 75,-17 85,-9"/>
<circle style="fill:blue;stroke:black;" cx="61" cy="-51" r="5.4"/>
<path style="fill:none;stroke:black;" d="M58,-46C53,-37 41,-18 36,-10"/>
<path style="fill:none;stroke:black;" d="M61,-45C61,-36 61,-19 61,-11"/>
<path style="fill:none;stroke:black;" d="M64,-46C69,-37 81,-18 86,-10"/>
<circle style="fill:blue;stroke:black;" cx="89" cy="-51" r="5.4"/>
<path style="fill:none;stroke:black;" d="M85,-47C74,-39 47,-17 37,-9"/>
<path style="fill:none;stroke:black;" d="M86,-46C81,-37 69,-18 64,-10"/>
<path style="fill:none;stroke:black;" d="M89,-45C89,-36 89,-19 89,-11"/></g></svg>